<svg width="22" height="22" viewBox="0 0 22 22" fill="none" xmlns="http://www.w3.org/2000/svg">
<path fill-rule="evenodd" clip-rule="evenodd" d="M11 22C17.0751 22 22 17.0751 22 11C22 4.92487 17.0751 0 11 0C4.92487 0 0 4.92487 0 11C0 17.0751 4.92487 22 11 22ZM4.14386 16.8201C2.81099 15.2515 2.00683 13.2197 2.00683 11L2.00683 10.9978C5.61307 10.9618 8.57567 10.4838 11.2422 9.57788C11.4668 10.0605 11.6847 10.5534 11.8956 11.0564C11.5555 11.1691 11.221 11.2949 10.8918 11.4335C8.24177 12.5489 6.00538 14.4612 4.14386 16.8201ZM5.60614 18.1967C7.10884 19.3248 8.97636 19.9932 11 19.9932C12.2188 19.9932 13.3809 19.7507 14.4409 19.3114C13.9668 17.0368 13.352 14.907 12.6265 12.9217C12.3003 13.0264 11.9807 13.1451 11.6677 13.2768C9.35601 14.2499 7.33843 15.9649 5.60614 18.1967ZM14.5924 12.4765C15.2479 14.3019 15.8129 16.2399 16.267 18.2902C18.048 17.0013 19.338 15.0757 19.8032 12.8473C17.9143 12.3589 16.1821 12.2604 14.5924 12.4765ZM13.8575 10.5662C15.754 10.2412 17.7996 10.3067 19.9917 10.8332C19.9578 8.97415 19.3599 7.25291 18.3619 5.8334C16.6358 7.0531 14.9276 8.06168 13.1111 8.85398C13.3687 9.41213 13.6177 9.98286 13.8575 10.5662ZM10.3457 7.76846C7.99734 8.53429 5.39047 8.94463 2.2312 8.9948C2.85725 6.24565 4.74294 3.97565 7.24906 2.82401C8.34941 4.31262 9.39333 5.96064 10.3457 7.76846ZM12.2302 7.05623C13.8876 6.34152 15.4466 5.43089 17.0282 4.32624C15.4333 2.88469 13.3192 2.00683 11 2.00683C10.4014 2.00683 9.81648 2.06531 9.2506 2.17688C10.3103 3.66337 11.3129 5.28992 12.2302 7.05623Z" fill="#777E90"/>
</svg>
