<svg width="23" height="21" viewBox="0 0 23 21" fill="none" xmlns="http://www.w3.org/2000/svg">
<path fill-rule="evenodd" clip-rule="evenodd" d="M22.1119 2.49449C22.4298 0.944717 20.9076 -0.343166 19.4319 0.227003L1.34271 7.21601C-0.305269 7.85273 -0.378699 10.1572 1.22539 10.8975L5.16471 12.7157L7.0387 19.2746C7.13604 19.6153 7.40639 19.8791 7.74939 19.968C8.09238 20.0568 8.45679 19.9576 8.70733 19.707L11.5941 16.8203L15.6377 19.8531C16.8115 20.7334 18.5021 20.0922 18.7969 18.6549L22.1119 2.49449ZM2.06351 9.0816L20.1527 2.0926L16.8377 18.2531L12.1002 14.6999C11.7021 14.4013 11.145 14.4409 10.7931 14.7928L9.55676 16.0292L9.92822 13.9861L17.2073 6.70703C17.5616 6.35278 17.599 5.79106 17.2949 5.39293C16.9908 4.99479 16.4391 4.88312 16.0041 5.13168L5.95145 10.876L2.06351 9.0816ZM7.17716 12.4791L7.78355 14.6015L8.01636 13.321C8.05274 13.1209 8.14929 12.9366 8.29312 12.7928L10.513 10.573L7.17716 12.4791Z" fill="#777E90"/>
</svg>
